<mxfile host="app.diagrams.net" modified="2023-10-30T01:36:21.860Z" agent="Mozilla/5.0 (Windows NT 10.0; Win64; x64) AppleWebKit/537.36 (KHTML, like Gecko) Chrome/118.0.0.0 Safari/537.36" etag="do-lI2jN09nJxgIfs_EJ" version="22.0.8" type="device">
  <diagram name="Page-1" id="AZsxACd8rmRaBaJMZTVB">
    <mxGraphModel dx="1647" dy="861" grid="1" gridSize="10" guides="1" tooltips="1" connect="1" arrows="1" fold="1" page="1" pageScale="1" pageWidth="827" pageHeight="1169" math="0" shadow="0">
      <root>
        <mxCell id="0" />
        <mxCell id="1" parent="0" />
        <mxCell id="k3e3uaz8uFiapatcWl_W-1" value="SEC source datasets" style="image;aspect=fixed;perimeter=ellipsePerimeter;html=1;align=center;shadow=0;dashed=0;spacingTop=3;image=img/lib/active_directory/internet_cloud.svg;" vertex="1" parent="1">
          <mxGeometry x="670" y="220" width="100" height="63" as="geometry" />
        </mxCell>
        <mxCell id="k3e3uaz8uFiapatcWl_W-3" value="AWS Cloud" style="points=[[0,0],[0.25,0],[0.5,0],[0.75,0],[1,0],[1,0.25],[1,0.5],[1,0.75],[1,1],[0.75,1],[0.5,1],[0.25,1],[0,1],[0,0.75],[0,0.5],[0,0.25]];outlineConnect=0;gradientColor=none;html=1;whiteSpace=wrap;fontSize=12;fontStyle=0;container=1;pointerEvents=0;collapsible=0;recursiveResize=0;shape=mxgraph.aws4.group;grIcon=mxgraph.aws4.group_aws_cloud;strokeColor=#232F3E;fillColor=none;verticalAlign=top;align=left;spacingLeft=30;fontColor=#232F3E;dashed=0;" vertex="1" parent="1">
          <mxGeometry x="80" y="140" width="560" height="660" as="geometry" />
        </mxCell>
        <mxCell id="k3e3uaz8uFiapatcWl_W-4" value="Region" style="points=[[0,0],[0.25,0],[0.5,0],[0.75,0],[1,0],[1,0.25],[1,0.5],[1,0.75],[1,1],[0.75,1],[0.5,1],[0.25,1],[0,1],[0,0.75],[0,0.5],[0,0.25]];outlineConnect=0;gradientColor=none;html=1;whiteSpace=wrap;fontSize=12;fontStyle=0;container=1;pointerEvents=0;collapsible=0;recursiveResize=0;shape=mxgraph.aws4.group;grIcon=mxgraph.aws4.group_region;strokeColor=#147EBA;fillColor=none;verticalAlign=top;align=left;spacingLeft=30;fontColor=#147EBA;dashed=1;" vertex="1" parent="k3e3uaz8uFiapatcWl_W-3">
          <mxGeometry x="150" y="40" width="400" height="600" as="geometry" />
        </mxCell>
        <mxCell id="k3e3uaz8uFiapatcWl_W-5" value="Collect job" style="sketch=0;points=[[0,0,0],[0.25,0,0],[0.5,0,0],[0.75,0,0],[1,0,0],[0,1,0],[0.25,1,0],[0.5,1,0],[0.75,1,0],[1,1,0],[0,0.25,0],[0,0.5,0],[0,0.75,0],[1,0.25,0],[1,0.5,0],[1,0.75,0]];outlineConnect=0;fontColor=#232F3E;fillColor=#8C4FFF;strokeColor=#ffffff;dashed=0;verticalLabelPosition=bottom;verticalAlign=top;align=center;html=1;fontSize=12;fontStyle=0;aspect=fixed;shape=mxgraph.aws4.resourceIcon;resIcon=mxgraph.aws4.glue;" vertex="1" parent="k3e3uaz8uFiapatcWl_W-4">
          <mxGeometry x="146" y="32" width="78" height="78" as="geometry" />
        </mxCell>
        <mxCell id="k3e3uaz8uFiapatcWl_W-10" value="" style="sketch=0;points=[[0,0,0],[0.25,0,0],[0.5,0,0],[0.75,0,0],[1,0,0],[0,1,0],[0.25,1,0],[0.5,1,0],[0.75,1,0],[1,1,0],[0,0.25,0],[0,0.5,0],[0,0.75,0],[1,0.25,0],[1,0.5,0],[1,0.75,0]];outlineConnect=0;fontColor=#232F3E;fillColor=#8C4FFF;strokeColor=#ffffff;dashed=0;verticalLabelPosition=bottom;verticalAlign=top;align=center;html=1;fontSize=12;fontStyle=0;aspect=fixed;shape=mxgraph.aws4.resourceIcon;resIcon=mxgraph.aws4.glue;" vertex="1" parent="k3e3uaz8uFiapatcWl_W-4">
          <mxGeometry x="26" y="174" width="80" height="80" as="geometry" />
        </mxCell>
        <mxCell id="k3e3uaz8uFiapatcWl_W-11" value="Glue Data Catalog" style="sketch=0;outlineConnect=0;fontColor=#232F3E;gradientColor=none;fillColor=#8C4FFF;strokeColor=none;dashed=0;verticalLabelPosition=bottom;verticalAlign=top;align=center;html=1;fontSize=12;fontStyle=0;aspect=fixed;pointerEvents=1;shape=mxgraph.aws4.glue_data_catalog;" vertex="1" parent="k3e3uaz8uFiapatcWl_W-4">
          <mxGeometry x="164" y="307" width="72" height="78" as="geometry" />
        </mxCell>
        <mxCell id="k3e3uaz8uFiapatcWl_W-31" style="edgeStyle=orthogonalEdgeStyle;rounded=0;orthogonalLoop=1;jettySize=auto;html=1;" edge="1" parent="k3e3uaz8uFiapatcWl_W-4" source="k3e3uaz8uFiapatcWl_W-12" target="k3e3uaz8uFiapatcWl_W-11">
          <mxGeometry relative="1" as="geometry" />
        </mxCell>
        <mxCell id="k3e3uaz8uFiapatcWl_W-12" value="Athena Queries" style="sketch=0;points=[[0,0,0],[0.25,0,0],[0.5,0,0],[0.75,0,0],[1,0,0],[0,1,0],[0.25,1,0],[0.5,1,0],[0.75,1,0],[1,1,0],[0,0.25,0],[0,0.5,0],[0,0.75,0],[1,0.25,0],[1,0.5,0],[1,0.75,0]];outlineConnect=0;fontColor=#232F3E;fillColor=#8C4FFF;strokeColor=#ffffff;dashed=0;verticalLabelPosition=bottom;verticalAlign=top;align=center;html=1;fontSize=12;fontStyle=0;aspect=fixed;shape=mxgraph.aws4.resourceIcon;resIcon=mxgraph.aws4.athena;" vertex="1" parent="k3e3uaz8uFiapatcWl_W-4">
          <mxGeometry x="26" y="307" width="78" height="78" as="geometry" />
        </mxCell>
        <mxCell id="k3e3uaz8uFiapatcWl_W-25" value="" style="sketch=0;points=[[0,0,0],[0.25,0,0],[0.5,0,0],[0.75,0,0],[1,0,0],[0,1,0],[0.25,1,0],[0.5,1,0],[0.75,1,0],[1,1,0],[0,0.25,0],[0,0.5,0],[0,0.75,0],[1,0.25,0],[1,0.5,0],[1,0.75,0]];outlineConnect=0;fontColor=#232F3E;fillColor=#8C4FFF;strokeColor=#ffffff;dashed=0;verticalLabelPosition=bottom;verticalAlign=top;align=center;html=1;fontSize=12;fontStyle=0;aspect=fixed;shape=mxgraph.aws4.resourceIcon;resIcon=mxgraph.aws4.glue;" vertex="1" parent="k3e3uaz8uFiapatcWl_W-4">
          <mxGeometry x="290" y="174" width="80" height="80" as="geometry" />
        </mxCell>
        <mxCell id="k3e3uaz8uFiapatcWl_W-24" value="" style="sketch=0;points=[[0,0,0],[0.25,0,0],[0.5,0,0],[0.75,0,0],[1,0,0],[0,1,0],[0.25,1,0],[0.5,1,0],[0.75,1,0],[1,1,0],[0,0.25,0],[0,0.5,0],[0,0.75,0],[1,0.25,0],[1,0.5,0],[1,0.75,0]];outlineConnect=0;fontColor=#232F3E;fillColor=#8C4FFF;strokeColor=#ffffff;dashed=0;verticalLabelPosition=bottom;verticalAlign=top;align=center;html=1;fontSize=12;fontStyle=0;aspect=fixed;shape=mxgraph.aws4.resourceIcon;resIcon=mxgraph.aws4.glue;" vertex="1" parent="k3e3uaz8uFiapatcWl_W-4">
          <mxGeometry x="202" y="174" width="80" height="80" as="geometry" />
        </mxCell>
        <mxCell id="k3e3uaz8uFiapatcWl_W-23" value="" style="sketch=0;points=[[0,0,0],[0.25,0,0],[0.5,0,0],[0.75,0,0],[1,0,0],[0,1,0],[0.25,1,0],[0.5,1,0],[0.75,1,0],[1,1,0],[0,0.25,0],[0,0.5,0],[0,0.75,0],[1,0.25,0],[1,0.5,0],[1,0.75,0]];outlineConnect=0;fontColor=#232F3E;fillColor=#8C4FFF;strokeColor=#ffffff;dashed=0;verticalLabelPosition=bottom;verticalAlign=top;align=center;html=1;fontSize=12;fontStyle=0;aspect=fixed;shape=mxgraph.aws4.resourceIcon;resIcon=mxgraph.aws4.glue;" vertex="1" parent="k3e3uaz8uFiapatcWl_W-4">
          <mxGeometry x="114" y="174" width="80" height="80" as="geometry" />
        </mxCell>
        <mxCell id="k3e3uaz8uFiapatcWl_W-29" style="edgeStyle=orthogonalEdgeStyle;rounded=0;orthogonalLoop=1;jettySize=auto;html=1;" edge="1" parent="k3e3uaz8uFiapatcWl_W-4" source="k3e3uaz8uFiapatcWl_W-26" target="k3e3uaz8uFiapatcWl_W-11">
          <mxGeometry relative="1" as="geometry" />
        </mxCell>
        <mxCell id="k3e3uaz8uFiapatcWl_W-26" value="Transform jobs" style="fillColor=none;strokeColor=#5A6C86;dashed=1;verticalAlign=top;fontStyle=0;fontColor=#5A6C86;whiteSpace=wrap;html=1;" vertex="1" parent="k3e3uaz8uFiapatcWl_W-4">
          <mxGeometry x="18" y="148" width="364" height="120" as="geometry" />
        </mxCell>
        <mxCell id="k3e3uaz8uFiapatcWl_W-33" style="edgeStyle=orthogonalEdgeStyle;rounded=0;orthogonalLoop=1;jettySize=auto;html=1;" edge="1" parent="k3e3uaz8uFiapatcWl_W-4" source="k3e3uaz8uFiapatcWl_W-32" target="k3e3uaz8uFiapatcWl_W-12">
          <mxGeometry relative="1" as="geometry" />
        </mxCell>
        <mxCell id="k3e3uaz8uFiapatcWl_W-32" value="QuickSight dashboards" style="sketch=0;points=[[0,0,0],[0.25,0,0],[0.5,0,0],[0.75,0,0],[1,0,0],[0,1,0],[0.25,1,0],[0.5,1,0],[0.75,1,0],[1,1,0],[0,0.25,0],[0,0.5,0],[0,0.75,0],[1,0.25,0],[1,0.5,0],[1,0.75,0]];outlineConnect=0;fontColor=#232F3E;fillColor=#8C4FFF;strokeColor=#ffffff;dashed=0;verticalLabelPosition=bottom;verticalAlign=top;align=center;html=1;fontSize=12;fontStyle=0;aspect=fixed;shape=mxgraph.aws4.resourceIcon;resIcon=mxgraph.aws4.quicksight;" vertex="1" parent="k3e3uaz8uFiapatcWl_W-4">
          <mxGeometry x="91" y="470" width="78" height="78" as="geometry" />
        </mxCell>
        <mxCell id="k3e3uaz8uFiapatcWl_W-19" value="Storage Bucket" style="sketch=0;points=[[0,0,0],[0.25,0,0],[0.5,0,0],[0.75,0,0],[1,0,0],[0,1,0],[0.25,1,0],[0.5,1,0],[0.75,1,0],[1,1,0],[0,0.25,0],[0,0.5,0],[0,0.75,0],[1,0.25,0],[1,0.5,0],[1,0.75,0]];outlineConnect=0;fontColor=#232F3E;fillColor=#7AA116;strokeColor=#ffffff;dashed=0;verticalLabelPosition=bottom;verticalAlign=top;align=center;html=1;fontSize=12;fontStyle=0;aspect=fixed;shape=mxgraph.aws4.resourceIcon;resIcon=mxgraph.aws4.s3;" vertex="1" parent="k3e3uaz8uFiapatcWl_W-3">
          <mxGeometry x="30" y="209" width="78" height="78" as="geometry" />
        </mxCell>
        <mxCell id="k3e3uaz8uFiapatcWl_W-20" style="edgeStyle=orthogonalEdgeStyle;rounded=0;orthogonalLoop=1;jettySize=auto;html=1;entryX=0.5;entryY=0;entryDx=0;entryDy=0;entryPerimeter=0;" edge="1" parent="k3e3uaz8uFiapatcWl_W-3" source="k3e3uaz8uFiapatcWl_W-5" target="k3e3uaz8uFiapatcWl_W-19">
          <mxGeometry relative="1" as="geometry" />
        </mxCell>
        <mxCell id="k3e3uaz8uFiapatcWl_W-28" value="" style="rounded=0;orthogonalLoop=1;jettySize=auto;html=1;" edge="1" parent="k3e3uaz8uFiapatcWl_W-3" source="k3e3uaz8uFiapatcWl_W-26" target="k3e3uaz8uFiapatcWl_W-19">
          <mxGeometry relative="1" as="geometry" />
        </mxCell>
        <mxCell id="k3e3uaz8uFiapatcWl_W-30" style="edgeStyle=orthogonalEdgeStyle;rounded=0;orthogonalLoop=1;jettySize=auto;html=1;" edge="1" parent="k3e3uaz8uFiapatcWl_W-3" source="k3e3uaz8uFiapatcWl_W-12" target="k3e3uaz8uFiapatcWl_W-19">
          <mxGeometry relative="1" as="geometry" />
        </mxCell>
        <mxCell id="k3e3uaz8uFiapatcWl_W-17" style="edgeStyle=orthogonalEdgeStyle;rounded=0;orthogonalLoop=1;jettySize=auto;html=1;" edge="1" parent="1" source="k3e3uaz8uFiapatcWl_W-5" target="k3e3uaz8uFiapatcWl_W-1">
          <mxGeometry relative="1" as="geometry" />
        </mxCell>
      </root>
    </mxGraphModel>
  </diagram>
</mxfile>
